<svg xmlns="http://www.w3.org/2000/svg" version="1.1" id="Layer_1" x="0px" y="0px" width="100%" viewBox="0 0 300 300" enable-background="new 0 0 600 300"><path fill="#FDFDFD" opacity="1.000000" stroke="none" d=" M252.129242,87.890671   C257.889404,93.625816 263.649567,99.360954 270.774597,106.455032   C249.556732,126.536507 228.666687,146.307724 207.776642,166.078934   C208.197372,166.654251 208.618088,167.229568 209.038818,167.804886   C215.598648,167.804886 222.159439,167.734207 228.718002,167.825455   C234.847565,167.910721 238.747879,171.400269 238.702606,176.541779   C238.658173,181.590408 234.629349,185.500244 228.914612,185.880371   C214.125397,186.864090 199.332474,187.792191 184.617188,188.737625   C183.739044,197.647629 183.540649,206.326874 181.933441,214.736893   C176.796417,241.617432 164.692673,264.686798 142.308228,281.236816   C129.314026,290.844116 114.412712,294.870605 98.428360,290.976044   C77.943916,285.985046 67.705833,268.000122 73.608475,247.664963   C79.342300,227.911392 92.219826,212.981857 107.706940,200.126389   C119.647804,190.214600 133.544113,183.917465 148.156891,179.066010   C149.703201,178.552658 151.258759,178.067245 152.735077,177.592941   C151.810089,146.913635 125.923492,126.255661 103.802689,128.988358   C99.407646,129.531296 95.158737,131.231812 90.830589,132.352737   C88.754517,132.890381 86.664345,133.394592 84.556587,133.784302   C80.760262,134.486206 78.088333,132.826950 76.358704,129.538635   C74.634789,126.261208 74.919487,123.110481 77.332184,120.264450   C81.205162,115.695816 84.829063,110.865112 89.088188,106.685173   C98.367584,97.578285 105.727821,87.097107 110.957474,75.346359   C113.452156,69.740929 114.961922,63.246719 115.076508,57.120651   C115.368599,41.503960 102.179672,31.851265 87.244118,36.614857   C81.337639,38.498684 75.730530,41.743256 70.462654,45.111893   C61.759727,50.677139 57.391315,57.926266 57.641392,69.400833   C58.323544,100.700752 56.734497,132.046936 57.260914,163.354340   C57.829224,197.153625 59.735725,230.931396 61.167210,264.713928   C61.350471,269.038818 60.683792,272.598633 56.539307,274.855804   C49.830162,278.509735 42.993530,275.581390 41.931416,268.041840   C39.145695,248.267136 36.323807,228.485901 34.175301,208.635941   C31.290794,181.986084 28.873402,155.282516 26.534929,128.577545   C23.958815,99.158752 23.184803,69.689392 26.113125,40.251740   C26.681328,34.539749 28.469973,28.878193 30.263325,23.378477   C32.156200,17.573557 36.912510,15.318833 42.754765,15.365616   C48.830688,15.414269 52.074127,18.023621 54.374802,24.403151   C55.050385,26.276474 55.634052,28.182943 56.449585,30.647650   C57.638279,29.662540 58.690693,28.790586 59.742874,27.918354   C72.893288,17.016951 87.410057,9.475798 105.035217,9.905972   C128.632462,10.481908 146.298721,25.503380 149.816818,48.863083   C150.961197,56.461761 149.917618,64.389954 149.824615,72.831955   C149.850494,73.648354 149.926514,73.800217 149.670441,74.118958   C145.151978,88.751617 138.192368,101.546318 126.245659,111.922287   C156.945572,120.151825 174.092453,140.769379 181.421494,170.568481   C187.414673,169.940018 193.170044,169.384781 198.905334,168.668579   C199.557251,168.587173 200.096283,167.601669 201.087250,166.961395   C204.442093,168.750763 206.372986,168.339340 208.221771,164.979858   C216.559509,149.829010 225.117874,134.798721 233.681244,119.773155   C239.760757,109.105865 245.975082,98.515404 252.129242,87.890671  M148.915543,213.319305   C150.271423,207.920135 151.627289,202.520950 153.071381,196.770477   C130.419235,202.195328 103.332085,226.176575 95.966179,246.939957   C95.199875,249.100052 94.645218,251.449631 94.590599,253.725632   C94.445976,259.751495 98.157013,263.234283 103.748123,261.338837   C110.229401,259.141632 116.889023,256.485382 122.366013,252.506897   C135.550018,242.929993 143.475281,229.336899 148.915543,213.319305  z"></path><path fill="#FCFCFC" opacity="1.000000" stroke="none" d=" M237.145325,72.643112   C227.482239,72.993263 217.703110,73.017197 207.093964,73.109909   C204.830582,73.498856 203.397232,73.819023 201.763138,73.757812   C191.682816,73.247894 181.803238,73.119347 171.923645,72.990799   C182.641022,61.878342 193.358383,50.765881 203.485229,40.265732   C214.794586,51.071758 225.911957,61.694328 237.145325,72.643112  z"></path><path fill="#A7A7A7" opacity="1.000000" stroke="none" d=" M171.461487,72.950394   C181.803238,73.119347 191.682816,73.247894 201.785156,73.888565   C202.007889,74.400688 202.056870,74.663826 201.646210,74.746933   C188.935318,76.735222 180.130096,83.028603 175.650299,95.200066   C175.280533,95.895996 175.132324,96.422859 174.922821,97.366287   C174.571335,99.861534 173.987640,101.949242 174.051193,104.017067   C174.189301,108.511169 174.657761,112.995110 174.690887,117.275711   C172.156982,113.230980 169.965698,109.368324 167.679932,105.562408   C164.150024,99.684967 160.555466,93.846352 156.992371,87.625107   C154.665115,82.823334 152.333817,78.387703 150.002518,73.952072   C149.926514,73.800217 149.850494,73.648354 149.876556,73.263100   C156.985550,72.989799 163.992447,72.949890 171.461487,72.950394  z"></path><path fill="none" opacity="1.000000" stroke="none" d=" M148.791382,213.695770   C143.475281,229.336899 135.550018,242.929993 122.366013,252.506897   C116.889023,256.485382 110.229401,259.141632 103.748123,261.338837   C98.157013,263.234283 94.445976,259.751495 94.590599,253.725632   C94.645218,251.449631 95.199875,249.100052 95.966179,246.939957   C103.332085,226.176575 130.419235,202.195328 153.071381,196.770477   C151.627289,202.520950 150.271423,207.920135 148.791382,213.695770  z"></path><path fill="none" opacity="1.000000" stroke="none" d=" M149.670441,74.118958   C152.333817,78.387703 154.665115,82.823334 156.714722,87.809021   C150.910675,94.015503 145.388321,99.671913 138.471878,106.756264   C151.427353,119.022133 164.074280,130.852173 176.550903,142.859161   C184.805130,150.802689 192.815018,159.000092 200.934311,167.083817   C200.934311,167.083817 200.828003,166.978760 200.757828,167.007080   C200.096283,167.601669 199.557251,168.587173 198.905334,168.668579   C193.170044,169.384781 187.414673,169.940018 181.421494,170.568481   C174.092453,140.769379 156.945572,120.151825 126.245659,111.922287   C138.192368,101.546318 145.151978,88.751617 149.670441,74.118958  z"></path><path fill="none" opacity="1.000000" stroke="none" d=" M361.328491,72.439529   C373.640289,78.015785 377.533112,88.623459 378.655609,100.415222   C379.159729,105.711235 377.724274,111.209991 377.018341,116.597015   C376.508850,120.484825 373.810883,121.001358 370.856537,119.673462   C368.024353,118.400459 365.038422,116.944267 362.871857,114.806602   C353.534119,105.593536 349.002197,94.365685 349.874908,81.133049   C349.907715,80.635963 349.943207,80.136444 350.023102,79.645485   C351.262787,72.027046 353.450867,70.555969 361.328491,72.439529  z"></path><path fill="none" opacity="1.000000" stroke="none" d=" M530.399780,113.612320   C521.846313,103.767090 517.324524,92.835922 518.945984,79.989258   C520.047668,71.261429 524.012573,69.099998 531.787415,73.243149   C535.182434,75.052315 538.529663,77.779907 540.693115,80.920784   C548.079346,91.644012 549.600464,103.481041 546.159302,116.084068   C545.034302,120.204063 542.763611,121.265251 539.319946,119.527573   C536.257263,117.982155 533.525574,115.780922 530.399780,113.612320  z"></path><path fill="#FDFDFD" opacity="1.000000" stroke="none" d=" M207.024185,74.477165   C221.371078,76.557259 232.022675,85.900330 234.772644,98.816833   C237.432297,111.309013 231.921936,124.435387 221.130127,131.315002   C209.732285,138.580948 195.716629,137.528091 184.456177,128.282410   C184.469788,128.005768 184.803558,128.044479 185.175110,128.061157   C190.204727,124.933647 194.973007,121.937340 199.474609,118.583153   C201.744141,116.892097 203.325577,116.882637 205.574875,118.591431   C209.922394,121.894287 214.523880,124.862823 219.080750,128.120300   C219.239166,128.310486 219.336945,128.350342 219.434723,128.390182   C219.275848,128.273254 219.116974,128.156326 219.062332,127.636581   C217.709564,122.140953 216.468155,116.972115 214.709763,111.985565   C213.748718,109.260185 214.285736,107.722420 216.553635,106.134842   C221.219559,102.868584 225.731049,99.381714 231.440186,95.143784   C224.148666,95.143784 218.371033,95.343452 212.624512,95.008926   C211.113541,94.920959 208.895676,93.486984 208.381027,92.143166   C206.314285,86.746529 204.788605,81.142685 202.984467,75.364143   C204.501678,75.031021 205.762924,74.754089 207.024185,74.477165  z"></path><path fill="#FDFDFD" opacity="1.000000" stroke="none" d=" M201.058151,166.715012   C192.815018,159.000092 184.805130,150.802689 176.550903,142.859161   C164.074280,130.852173 151.427353,119.022133 138.471878,106.756264   C145.388321,99.671913 150.910675,94.015503 156.710678,88.175171   C160.555466,93.846352 164.150024,99.684967 167.679932,105.562408   C169.965698,109.368324 172.156982,113.230980 174.687134,117.259293   C174.983658,117.450378 174.981720,117.477348 174.971436,117.846947   C175.645874,119.153847 176.330627,120.091156 177.006882,121.015015   C176.998398,121.001572 176.976913,120.978134 177.013733,121.267120   C177.374359,121.711052 177.698166,121.866005 178.011658,122.009720   C178.001373,121.998482 177.983444,121.973816 177.912354,122.353165   C178.569473,123.329910 179.297653,123.927299 180.019211,124.539078   C180.012573,124.553467 179.996567,124.519829 179.996582,124.519829   C180.474655,126.361908 180.599121,128.398575 181.488297,130.014450   C187.180130,140.358246 193.065689,150.595261 198.819260,160.905487   C199.778015,162.623535 200.402847,164.527924 201.058151,166.715012  z"></path><path fill="#AAAAAA" opacity="1.000000" stroke="none" d=" M219.020096,127.969955   C214.523880,124.862823 209.922394,121.894287 205.574875,118.591431   C203.325577,116.882637 201.744141,116.892097 199.474609,118.583153   C194.973007,121.937340 190.204727,124.933647 185.388199,127.746231   C186.973190,122.245972 188.876785,117.122490 190.355453,111.879173   C190.760788,110.441910 190.477875,107.897415 189.510284,107.141212   C184.856003,103.503769 179.859268,100.304527 174.984100,96.949730   C175.132324,96.422859 175.280533,95.895996 176.128479,95.243286   C181.990967,95.126137 187.162933,95.307625 192.310684,95.033783   C193.774338,94.955917 196.029831,93.864006 196.447922,92.705200   C198.583130,86.787224 200.235565,80.695061 202.056870,74.663826   C202.056870,74.663826 202.007889,74.400688 201.985870,74.269943   C203.397232,73.819023 204.830582,73.498856 206.637177,73.217468   C207.008209,73.529015 207.008896,73.801781 207.018326,74.275856   C205.762924,74.754089 204.501678,75.031021 202.984467,75.364143   C204.788605,81.142685 206.314285,86.746529 208.381027,92.143166   C208.895676,93.486984 211.113541,94.920959 212.624512,95.008926   C218.371033,95.343452 224.148666,95.143784 231.440186,95.143784   C225.731049,99.381714 221.219559,102.868584 216.553635,106.134842   C214.285736,107.722420 213.748718,109.260185 214.709763,111.985565   C216.468155,116.972115 217.709564,122.140953 219.078918,127.620163   C218.991287,128.006546 219.020096,127.969955 219.020096,127.969955  z"></path><path fill="#FDFDFD" opacity="1.000000" stroke="none" d=" M174.922821,97.366287   C179.859268,100.304527 184.856003,103.503769 189.510284,107.141212   C190.477875,107.897415 190.760788,110.441910 190.355453,111.879173   C188.876785,117.122490 186.973190,122.245972 185.016632,127.729546   C184.803558,128.044479 184.469788,128.005768 184.303101,127.989746   C182.950195,126.944756 181.763962,125.915787 180.287140,124.703323   C179.996567,124.519829 180.012573,124.553467 179.952957,124.195969   C179.256714,123.216919 178.620071,122.595367 177.983444,121.973816   C177.983444,121.973816 178.001373,121.998482 177.975372,121.720718   C177.625214,121.288017 177.301071,121.133080 176.976913,120.978134   C176.976913,120.978134 176.998398,121.001572 177.099792,120.633865   C176.461365,119.336555 175.721542,118.406952 174.981720,117.477348   C174.981720,117.477348 174.983658,117.450378 174.987427,117.466797   C174.657761,112.995110 174.189301,108.511169 174.051193,104.017067   C173.987640,101.949242 174.571335,99.861534 174.922821,97.366287  z"></path><path fill="#FEFEFE" opacity="1.000000" stroke="none" d=" M201.646210,74.746933   C200.235565,80.695061 198.583130,86.787224 196.447922,92.705200   C196.029831,93.864006 193.774338,94.955917 192.310684,95.033783   C187.162933,95.307625 181.990967,95.126137 176.350006,95.074219   C180.130096,83.028603 188.935318,76.735222 201.646210,74.746933  z"></path><path fill="#AAAAAA" opacity="1.000000" stroke="none" d=" M218.974701,128.022980   C219.116974,128.156326 219.275848,128.273254 219.434723,128.390182   C219.336945,128.350342 219.239166,128.310486 219.080750,128.120300   C219.020096,127.969955 218.991287,128.006546 218.974701,128.022980  z"></path><path fill="#AAAAAA" opacity="1.000000" stroke="none" d=" M174.971436,117.846947   C175.721542,118.406952 176.461365,119.336555 177.108276,120.647316   C176.330627,120.091156 175.645874,119.153847 174.971436,117.846947  z"></path><path fill="#AAAAAA" opacity="1.000000" stroke="none" d=" M177.912354,122.353165   C178.620071,122.595367 179.256714,123.216919 179.959595,124.181580   C179.297653,123.927299 178.569473,123.329910 177.912354,122.353165  z"></path><path fill="#AAAAAA" opacity="1.000000" stroke="none" d=" M177.013733,121.267120   C177.301071,121.133080 177.625214,121.288017 177.985657,121.731956   C177.698166,121.866005 177.374359,121.711052 177.013733,121.267120  z"></path></svg>